<svg width="30" height="30" viewBox="0 0 30 30" fill="none" xmlns="http://www.w3.org/2000/svg">
<path d="M15 0C16.377 0 17.7051 0.175781 18.9844 0.527344C20.2637 0.878906 21.46 1.38184 22.5732 2.03613C23.6865 2.69043 24.6973 3.47168 25.6055 4.37988C26.5137 5.28809 27.2949 6.30371 27.9492 7.42676C28.6035 8.5498 29.1064 9.74609 29.458 11.0156C29.8096 12.2852 29.9902 13.6133 30 15C30 16.377 29.8242 17.7051 29.4727 18.9844C29.1211 20.2637 28.6182 21.46 27.9639 22.5732C27.3096 23.6865 26.5283 24.6973 25.6201 25.6055C24.7119 26.5137 23.6963 27.2949 22.5732 27.9492C21.4502 28.6035 20.2539 29.1064 18.9844 29.458C17.7148 29.8096 16.3867 29.9902 15 30C13.623 30 12.2949 29.8242 11.0156 29.4727C9.73633 29.1211 8.54004 28.6182 7.42676 27.9639C6.31348 27.3096 5.30273 26.5283 4.39453 25.6201C3.48633 24.7119 2.70508 23.6963 2.05078 22.5732C1.39648 21.4502 0.893555 20.2588 0.541992 18.999C0.19043 17.7393 0.00976562 16.4062 0 15C0 13.623 0.175781 12.2949 0.527344 11.0156C0.878906 9.73633 1.38184 8.54004 2.03613 7.42676C2.69043 6.31348 3.47168 5.30273 4.37988 4.39453C5.28809 3.48633 6.30371 2.70508 7.42676 2.05078C8.5498 1.39648 9.74121 0.893555 11.001 0.541992C12.2607 0.19043 13.5938 0.00976562 15 0ZM15 28.125C16.2012 28.125 17.3584 27.9688 18.4717 27.6562C19.585 27.3438 20.6299 26.9043 21.6064 26.3379C22.583 25.7715 23.4717 25.083 24.2725 24.2725C25.0732 23.4619 25.7568 22.5781 26.3232 21.6211C26.8896 20.6641 27.334 19.6191 27.6562 18.4863C27.9785 17.3535 28.1348 16.1914 28.125 15C28.125 13.7988 27.9688 12.6416 27.6562 11.5283C27.3438 10.415 26.9043 9.37012 26.3379 8.39355C25.7715 7.41699 25.083 6.52832 24.2725 5.72754C23.4619 4.92676 22.5781 4.24316 21.6211 3.67676C20.6641 3.11035 19.6191 2.66602 18.4863 2.34375C17.3535 2.02148 16.1914 1.86523 15 1.875C14.3652 1.875 13.7402 1.91895 13.125 2.00684V27.9932C13.7402 28.0811 14.3652 28.125 15 28.125Z" fill="black"/>
</svg>
