<svg width="32" height="30" viewBox="0 0 32 30" fill="none" xmlns="http://www.w3.org/2000/svg">
<path d="M26.6068 2.61719C28.2009 4.28385 29.4281 6.17839 30.2885 8.30078C31.1488 10.4232 31.5789 12.6562 31.5789 15C31.5789 17.3438 31.1488 19.5768 30.2885 21.6992C29.4281 23.8216 28.2009 25.7161 26.6068 27.3828L24.8798 25.6055C26.2589 24.1862 27.3153 22.5651 28.0491 20.7422C28.7829 18.9193 29.1498 17.0052 29.1498 15C29.1498 12.9948 28.7829 11.0807 28.0491 9.25781C27.3153 7.4349 26.2589 5.8138 24.8798 4.39453L26.6068 2.61719ZM21.4448 7.92969C22.3684 8.88021 23.0706 9.96094 23.5514 11.1719C24.0321 12.3828 24.2788 13.6589 24.2915 15C24.2915 16.3411 24.0511 17.6172 23.5703 18.8281C23.0896 20.0391 22.3811 21.1198 21.4448 22.0703L19.7368 20.3125C20.42 19.6094 20.9451 18.8021 21.312 17.8906C21.6789 16.9792 21.8623 16.0156 21.8623 15C21.8623 13.9974 21.6789 13.0404 21.312 12.1289C20.9451 11.2174 20.42 10.4036 19.7368 9.6875L21.4448 7.92969ZM12.8479 0H14.5749V30H12.8669L5.56048 22.5H0V7.5H5.56048L12.8479 0ZM12.1457 4.27734L6.58527 10H2.42915V20H6.58527L12.1457 25.7227V4.27734Z" fill="black"/>
</svg>
