<svg width="20" height="19" viewBox="0 0 20 19" fill="none" xmlns="http://www.w3.org/2000/svg">
<path d="M16.851 1.65755C17.8606 2.71311 18.6378 3.91298 19.1827 5.25716C19.7276 6.60135 20 8.01563 20 9.5C20 10.9844 19.7276 12.3987 19.1827 13.7428C18.6378 15.087 17.8606 16.2869 16.851 17.3424L15.7572 16.2168C16.6306 15.3179 17.2997 14.2912 17.7644 13.1367C18.2292 11.9822 18.4615 10.77 18.4615 9.5C18.4615 8.23003 18.2292 7.0178 17.7644 5.86328C17.2997 4.70877 16.6306 3.68207 15.7572 2.7832L16.851 1.65755ZM13.5817 5.02214C14.1667 5.62413 14.6114 6.30859 14.9159 7.07552C15.2204 7.84245 15.3766 8.65061 15.3846 9.5C15.3846 10.3494 15.2324 11.1576 14.9279 11.9245C14.6234 12.6914 14.1747 13.3759 13.5817 13.9779L12.5 12.8646C12.9327 12.4193 13.2652 11.908 13.4976 11.3307C13.73 10.7535 13.8462 10.1432 13.8462 9.5C13.8462 8.86502 13.73 8.2589 13.4976 7.68164C13.2652 7.10438 12.9327 6.58898 12.5 6.13542L13.5817 5.02214ZM8.13702 0H9.23077V19H8.14904L3.52163 14.25H0V4.75H3.52163L8.13702 0ZM7.69231 2.70898L4.17067 6.33333H1.53846V12.6667H4.17067L7.69231 16.291V2.70898Z" fill="black"/>
</svg>
