<svg width="30" height="30" viewBox="0 0 30 30" fill="none" xmlns="http://www.w3.org/2000/svg">
<path d="M9.12162 6.32066H11.3514L20.4262 30H17.9626L15.0312 22.1069H5.34823L2.47921 30H0L9.12162 6.32066ZM6.0343 20.149H14.2827L10.6497 10.4676C10.4418 9.92292 10.2963 9.36793 10.2131 8.80267H10.1351C10.0208 9.37821 9.86486 9.9332 9.66736 10.4676L6.0343 20.149ZM25.0104 2.79034L21.4241 6.33607L20.0208 4.9332L25.0104 0L30 4.9332L28.5811 6.33607L25.0104 2.79034ZM24.948 11.8397L28.5343 8.29394L29.9376 9.6814L24.948 14.6146L19.9584 9.6814L21.3617 8.29394L24.948 11.8397Z" fill="black"/>
</svg>
