<svg width="29" height="30" viewBox="0 0 29 30" fill="none" xmlns="http://www.w3.org/2000/svg">
<path d="M28.5714 20.5425C28.5714 21.3539 28.4772 22.1505 28.2887 22.9326C28.1002 23.7146 27.8175 24.4575 27.4405 25.1613C27.0635 25.8651 26.622 26.5103 26.1161 27.0968C25.6101 27.6833 25.0198 28.1965 24.3452 28.6364C23.6706 29.0762 22.9563 29.4086 22.2024 29.6334C21.4484 29.8583 20.63 29.9804 19.747 30C19.1617 30 18.5764 29.9462 17.9911 29.8387C17.4058 29.7312 16.8403 29.5699 16.2946 29.3548C15.749 29.1398 15.2232 28.8759 14.7173 28.563C14.2113 28.2502 13.755 27.8837 13.3482 27.4633L4.10714 18.3578C3.83929 18.0938 3.63591 17.7908 3.49702 17.4487C3.35813 17.1066 3.28373 16.7449 3.27381 16.3636C3.27381 15.8065 3.42758 15.2981 3.73512 14.8387C4.04266 14.3793 4.45933 14.0323 4.98512 13.7977C4.7371 13.3578 4.6131 12.8935 4.6131 12.4047C4.6131 11.8475 4.76687 11.3343 5.0744 10.8651C5.38194 10.3959 5.80357 10.0489 6.33929 9.82405C6.08135 9.39394 5.95238 8.92962 5.95238 8.43108C5.95238 8.04008 6.02679 7.67351 6.1756 7.33138C6.3244 6.98925 6.52778 6.6911 6.78571 6.43695C7.04365 6.1828 7.34623 5.9824 7.69345 5.83578C8.04067 5.68915 8.4127 5.61584 8.80952 5.61584C9.30556 5.61584 9.77679 5.73803 10.2232 5.9824C10.4613 5.46432 10.8135 5.05376 11.2798 4.75073C11.746 4.4477 12.2669 4.29619 12.8423 4.29619C13.2192 4.29619 13.5813 4.36461 13.9286 4.50147C14.2758 4.63832 14.5833 4.8436 14.8512 5.1173L22.8571 13.0059V10.3519C22.8571 9.98045 22.9266 9.62366 23.0655 9.28152C23.2044 8.93939 23.4127 8.63148 23.6905 8.35777C23.9583 8.10362 24.2659 7.90323 24.6131 7.7566C24.9603 7.60997 25.3274 7.53666 25.7143 7.53666C26.1111 7.53666 26.4831 7.60997 26.8304 7.7566C27.1776 7.90323 27.4802 8.10362 27.7381 8.35777C27.996 8.61193 28.1994 8.91007 28.3482 9.2522C28.497 9.59433 28.5714 9.9609 28.5714 10.3519V20.5425ZM26.6667 20.4985V10.3519C26.6667 10.0978 26.5724 9.87781 26.3839 9.69208C26.1954 9.50635 25.9722 9.41349 25.7143 9.41349C25.4464 9.41349 25.2232 9.50147 25.0446 9.67742C24.8661 9.85337 24.7718 10.0782 24.7619 10.3519V13.6804C24.7619 14.0029 24.6726 14.2962 24.494 14.5601C24.3155 14.824 24.0724 15.0196 23.7649 15.1466C23.6657 15.1955 23.5665 15.2248 23.4673 15.2346C23.3681 15.2444 23.2589 15.2542 23.1399 15.2639C22.6835 15.2639 22.3016 15.1124 21.994 14.8094L13.5119 6.45161C13.3234 6.26588 13.1002 6.17302 12.8423 6.17302C12.5843 6.17302 12.3611 6.26588 12.1726 6.45161C11.9841 6.63734 11.8899 6.85728 11.8899 7.11144C11.8899 7.36559 11.9841 7.58553 12.1726 7.77126L17.5446 13.0645C17.7331 13.2502 17.8274 13.4702 17.8274 13.7243C17.8274 13.9785 17.7331 14.1984 17.5446 14.3842C17.3562 14.5699 17.1329 14.6628 16.875 14.6628C16.6171 14.6628 16.3938 14.5699 16.2054 14.3842L9.47917 7.77126C9.29067 7.58553 9.06746 7.49267 8.80952 7.49267C8.55159 7.49267 8.32837 7.58553 8.13988 7.77126C7.95139 7.95699 7.85714 8.17693 7.85714 8.43108C7.85714 8.68524 7.95139 8.90518 8.13988 9.09091L14.8512 15.7038C15.0397 15.8895 15.1339 16.1144 15.1339 16.3783C15.1339 16.6325 15.0397 16.8524 14.8512 17.0381C14.6627 17.2239 14.4395 17.3167 14.1815 17.3167C13.9236 17.3167 13.7004 17.2239 13.5119 17.0381L8.13988 11.7449C7.95139 11.5591 7.72817 11.4663 7.47024 11.4663C7.2123 11.4663 6.98909 11.5591 6.8006 11.7449C6.6121 11.9306 6.51786 12.1505 6.51786 12.4047C6.51786 12.6588 6.6121 12.8788 6.8006 13.0645L12.8423 19.0176C13.0308 19.2033 13.125 19.4233 13.125 19.6774C13.125 19.9316 13.0308 20.1515 12.8423 20.3372C12.6538 20.523 12.4306 20.6158 12.1726 20.6158C11.9147 20.6158 11.6915 20.523 11.503 20.3372L6.78571 15.7185C6.59722 15.5327 6.37897 15.4399 6.13095 15.4399C5.87302 15.4399 5.6498 15.5279 5.46131 15.7038C5.27282 15.8798 5.17857 16.1046 5.17857 16.3783C5.17857 16.6227 5.27282 16.8377 5.46131 17.0235L14.6875 26.129C15.3423 26.7742 16.1161 27.263 17.0089 27.5953C17.9018 27.9277 18.8095 28.0987 19.7321 28.1085C20.7738 28.1085 21.7212 27.8983 22.5744 27.478C23.4276 27.0577 24.1567 26.4907 24.7619 25.7771C25.3671 25.0635 25.8333 24.2571 26.1607 23.3578C26.4881 22.4585 26.6567 21.5054 26.6667 20.4985ZM17.1429 0.938416C17.1429 0.684262 17.2371 0.464321 17.4256 0.278592C17.6141 0.0928641 17.8373 0 18.0952 0C19.0179 0 19.881 0.171065 20.6845 0.513196C21.4881 0.855327 22.1974 1.32454 22.8125 1.92082C23.4276 2.51711 23.9038 3.21114 24.2411 4.00293C24.5784 4.79472 24.752 5.65005 24.7619 6.56891C24.7619 6.82307 24.6677 7.04301 24.4792 7.22874C24.2907 7.41447 24.0675 7.50733 23.8095 7.50733C23.5516 7.50733 23.3284 7.41447 23.1399 7.22874C22.9514 7.04301 22.8571 6.82307 22.8571 6.56891C22.8571 5.92375 22.7331 5.31769 22.4851 4.75073C22.2371 4.18377 21.8948 3.69013 21.4583 3.26979C21.0218 2.84946 20.5159 2.51222 19.9405 2.25806C19.3651 2.00391 18.75 1.87683 18.0952 1.87683C17.8373 1.87683 17.6141 1.78397 17.4256 1.59824C17.2371 1.41251 17.1429 1.19257 17.1429 0.938416ZM17.1429 4.22287C17.1429 3.96872 17.2371 3.74878 17.4256 3.56305C17.6141 3.37732 17.8373 3.28446 18.0952 3.28446C18.5516 3.28446 18.9831 3.36755 19.3899 3.53372C19.7966 3.6999 20.1488 3.93451 20.4464 4.23754C20.744 4.54057 20.9821 4.89247 21.1607 5.29326C21.3393 5.69404 21.4286 6.11926 21.4286 6.56891C21.4286 6.82307 21.3343 7.04301 21.1458 7.22874C20.9573 7.41447 20.7341 7.50733 20.4762 7.50733C20.2183 7.50733 19.995 7.41447 19.8065 7.22874C19.6181 7.04301 19.5238 6.82307 19.5238 6.56891C19.5238 6.17791 19.3849 5.84555 19.1071 5.57185C18.8294 5.29814 18.4921 5.16129 18.0952 5.16129C17.8373 5.16129 17.6141 5.06843 17.4256 4.8827C17.2371 4.69697 17.1429 4.47703 17.1429 4.22287ZM7.61905 27.2141C7.61905 27.4682 7.5248 27.6882 7.33631 27.8739C7.14782 28.0596 6.9246 28.1525 6.66667 28.1525C5.74405 28.1525 4.88095 27.9814 4.07738 27.6393C3.27381 27.2972 2.56448 26.828 1.9494 26.2317C1.33433 25.6354 0.858135 24.9413 0.520833 24.1496C0.183532 23.3578 0.00992064 22.5024 0 21.5836C0 21.3294 0.094246 21.1095 0.282738 20.9238C0.47123 20.738 0.694444 20.6452 0.952381 20.6452C1.21032 20.6452 1.43353 20.738 1.62202 20.9238C1.81052 21.1095 1.90476 21.3294 1.90476 21.5836C1.90476 22.2287 2.02877 22.8348 2.27679 23.4018C2.5248 23.9687 2.8621 24.4673 3.28869 24.8974C3.71528 25.3275 4.22123 25.6647 4.80655 25.9091C5.39187 26.1535 6.0119 26.2757 6.66667 26.2757C6.9246 26.2757 7.14782 26.3685 7.33631 26.5543C7.5248 26.74 7.61905 26.9599 7.61905 27.2141ZM7.61905 23.9296C7.61905 24.1838 7.5248 24.4037 7.33631 24.5894C7.14782 24.7752 6.9246 24.868 6.66667 24.868C6.2004 24.868 5.76885 24.7849 5.37202 24.6188C4.9752 24.4526 4.62302 24.218 4.31548 23.915C4.00794 23.6119 3.76984 23.2649 3.60119 22.8739C3.43254 22.4829 3.34325 22.0528 3.33333 21.5836C3.33333 21.3294 3.42758 21.1095 3.61607 20.9238C3.80456 20.738 4.02778 20.6452 4.28571 20.6452C4.54365 20.6452 4.76687 20.738 4.95536 20.9238C5.14385 21.1095 5.2381 21.3294 5.2381 21.5836C5.2381 21.9746 5.37698 22.3069 5.65476 22.5806C5.93254 22.8543 6.26984 22.9912 6.66667 22.9912C6.9246 22.9912 7.14782 23.0841 7.33631 23.2698C7.5248 23.4555 7.61905 23.6755 7.61905 23.9296Z" fill="black"/>
</svg>
