<svg width="20" height="21" viewBox="0 0 20 21" fill="none" xmlns="http://www.w3.org/2000/svg">
<path d="M20 14.3798C20 14.9477 19.934 15.5054 19.8021 16.0528C19.6701 16.6002 19.4722 17.1202 19.2083 17.6129C18.9444 18.1056 18.6354 18.5572 18.2813 18.9677C17.9271 19.3783 17.5139 19.7375 17.0417 20.0455C16.5694 20.3534 16.0694 20.586 15.5417 20.7434C15.0139 20.9008 14.441 20.9863 13.8229 21C13.4132 21 13.0035 20.9624 12.5938 20.8871C12.184 20.8118 11.7882 20.6989 11.4063 20.5484C11.0243 20.3979 10.6563 20.2131 10.3021 19.9941C9.94792 19.7752 9.62847 19.5186 9.34375 19.2243L2.875 12.8504C2.6875 12.6657 2.54514 12.4536 2.44792 12.2141C2.35069 11.9746 2.29861 11.7214 2.29167 11.4545C2.29167 11.0645 2.39931 10.7087 2.61458 10.3871C2.82986 10.0655 3.12153 9.82258 3.48958 9.65836C3.31597 9.35044 3.22917 9.02542 3.22917 8.68328C3.22917 8.29326 3.33681 7.93402 3.55208 7.60557C3.76736 7.27713 4.0625 7.03421 4.4375 6.87683C4.25694 6.57576 4.16667 6.25073 4.16667 5.90176C4.16667 5.62805 4.21875 5.37146 4.32292 5.13197C4.42708 4.89247 4.56944 4.68377 4.75 4.50587C4.93056 4.32796 5.14236 4.18768 5.38542 4.08504C5.62847 3.9824 5.88889 3.93109 6.16667 3.93109C6.51389 3.93109 6.84375 4.01662 7.15625 4.18768C7.32292 3.82502 7.56944 3.53763 7.89583 3.32551C8.22222 3.11339 8.58681 3.00733 8.98958 3.00733C9.25347 3.00733 9.50694 3.05523 9.75 3.15103C9.99306 3.24682 10.2083 3.39052 10.3958 3.58211L16 9.10411V7.24633C16 6.98632 16.0486 6.73656 16.1458 6.49707C16.2431 6.25758 16.3889 6.04203 16.5833 5.85044C16.7708 5.67253 16.9861 5.53226 17.2292 5.42962C17.4722 5.32698 17.7292 5.27566 18 5.27566C18.2778 5.27566 18.5382 5.32698 18.7813 5.42962C19.0243 5.53226 19.2361 5.67253 19.4167 5.85044C19.5972 6.02835 19.7396 6.23705 19.8438 6.47654C19.9479 6.71603 20 6.97263 20 7.24633V14.3798ZM18.6667 14.349V7.24633C18.6667 7.06843 18.6007 6.91447 18.4688 6.78446C18.3368 6.65445 18.1806 6.58944 18 6.58944C17.8125 6.58944 17.6563 6.65103 17.5313 6.77419C17.4063 6.89736 17.3403 7.05474 17.3333 7.24633V9.57625C17.3333 9.80205 17.2708 10.0073 17.1458 10.1921C17.0208 10.3768 16.8507 10.5137 16.6354 10.6026C16.566 10.6369 16.4965 10.6574 16.4271 10.6642C16.3576 10.6711 16.2813 10.6779 16.1979 10.6848C15.8785 10.6848 15.6111 10.5787 15.3958 10.3666L9.45833 4.51613C9.32639 4.38612 9.17014 4.32111 8.98958 4.32111C8.80903 4.32111 8.65278 4.38612 8.52083 4.51613C8.38889 4.64614 8.32292 4.8001 8.32292 4.97801C8.32292 5.15591 8.38889 5.30987 8.52083 5.43988L12.2813 9.14516C12.4132 9.27517 12.4792 9.42913 12.4792 9.60704C12.4792 9.78495 12.4132 9.93891 12.2813 10.0689C12.1493 10.1989 11.9931 10.2639 11.8125 10.2639C11.6319 10.2639 11.4757 10.1989 11.3438 10.0689L6.63542 5.43988C6.50347 5.30987 6.34722 5.24487 6.16667 5.24487C5.98611 5.24487 5.82986 5.30987 5.69792 5.43988C5.56597 5.56989 5.5 5.72385 5.5 5.90176C5.5 6.07967 5.56597 6.23363 5.69792 6.36364L10.3958 10.9927C10.5278 11.1227 10.5938 11.2801 10.5938 11.4648C10.5938 11.6427 10.5278 11.7967 10.3958 11.9267C10.2639 12.0567 10.1076 12.1217 9.92708 12.1217C9.74653 12.1217 9.59028 12.0567 9.45833 11.9267L5.69792 8.22141C5.56597 8.0914 5.40972 8.02639 5.22917 8.02639C5.04861 8.02639 4.89236 8.0914 4.76042 8.22141C4.62847 8.35142 4.5625 8.50538 4.5625 8.68328C4.5625 8.86119 4.62847 9.01515 4.76042 9.14516L8.98958 13.3123C9.12153 13.4423 9.1875 13.5963 9.1875 13.7742C9.1875 13.9521 9.12153 14.1061 8.98958 14.2361C8.85764 14.3661 8.70139 14.4311 8.52083 14.4311C8.34028 14.4311 8.18403 14.3661 8.05208 14.2361L4.75 11.0029C4.61806 10.8729 4.46528 10.8079 4.29167 10.8079C4.11111 10.8079 3.95486 10.8695 3.82292 10.9927C3.69097 11.1158 3.625 11.2732 3.625 11.4648C3.625 11.6359 3.69097 11.7864 3.82292 11.9164L10.2813 18.2903C10.7396 18.7419 11.2813 19.0841 11.9063 19.3167C12.5313 19.5494 13.1667 19.6691 13.8125 19.676C14.5417 19.676 15.2049 19.5288 15.8021 19.2346C16.3993 18.9404 16.9097 18.5435 17.3333 18.044C17.7569 17.5445 18.0833 16.98 18.3125 16.3504C18.5417 15.7209 18.6597 15.0538 18.6667 14.349ZM12 0.656892C12 0.478983 12.066 0.325024 12.1979 0.195015C12.3299 0.0650049 12.4861 0 12.6667 0C13.3125 0 13.9167 0.119746 14.4792 0.359238C15.0417 0.598729 15.5382 0.927175 15.9688 1.34457C16.3993 1.76197 16.7326 2.2478 16.9688 2.80205C17.2049 3.35631 17.3264 3.95503 17.3333 4.59824C17.3333 4.77615 17.2674 4.93011 17.1354 5.06012C17.0035 5.19013 16.8472 5.25513 16.6667 5.25513C16.4861 5.25513 16.3299 5.19013 16.1979 5.06012C16.066 4.93011 16 4.77615 16 4.59824C16 4.14663 15.9132 3.72239 15.7396 3.32551C15.566 2.92864 15.3264 2.58309 15.0208 2.28886C14.7153 1.99462 14.3611 1.75855 13.9583 1.58065C13.5556 1.40274 13.125 1.31378 12.6667 1.31378C12.4861 1.31378 12.3299 1.24878 12.1979 1.11877C12.066 0.988759 12 0.8348 12 0.656892ZM12 2.95601C12 2.7781 12.066 2.62414 12.1979 2.49414C12.3299 2.36413 12.4861 2.29912 12.6667 2.29912C12.9861 2.29912 13.2882 2.35728 13.5729 2.47361C13.8576 2.58993 14.1042 2.75415 14.3125 2.96628C14.5208 3.1784 14.6875 3.42473 14.8125 3.70528C14.9375 3.98583 15 4.28348 15 4.59824C15 4.77615 14.934 4.93011 14.8021 5.06012C14.6701 5.19013 14.5139 5.25513 14.3333 5.25513C14.1528 5.25513 13.9965 5.19013 13.8646 5.06012C13.7326 4.93011 13.6667 4.77615 13.6667 4.59824C13.6667 4.32454 13.5694 4.09189 13.375 3.90029C13.1806 3.7087 12.9444 3.6129 12.6667 3.6129C12.4861 3.6129 12.3299 3.5479 12.1979 3.41789C12.066 3.28788 12 3.13392 12 2.95601ZM5.33333 19.0499C5.33333 19.2278 5.26736 19.3817 5.13542 19.5117C5.00347 19.6417 4.84722 19.7067 4.66667 19.7067C4.02083 19.7067 3.41667 19.587 2.85417 19.3475C2.29167 19.108 1.79514 18.7796 1.36458 18.3622C0.934028 17.9448 0.600694 17.4589 0.364583 16.9047C0.128472 16.3504 0.00694444 15.7517 0 15.1085C0 14.9306 0.0659722 14.7766 0.197917 14.6466C0.329861 14.5166 0.486111 14.4516 0.666667 14.4516C0.847222 14.4516 1.00347 14.5166 1.13542 14.6466C1.26736 14.7766 1.33333 14.9306 1.33333 15.1085C1.33333 15.5601 1.42014 15.9844 1.59375 16.3812C1.76736 16.7781 2.00347 17.1271 2.30208 17.4282C2.60069 17.7292 2.95486 17.9653 3.36458 18.1364C3.77431 18.3074 4.20833 18.393 4.66667 18.393C4.84722 18.393 5.00347 18.458 5.13542 18.588C5.26736 18.718 5.33333 18.8719 5.33333 19.0499ZM5.33333 16.7507C5.33333 16.9286 5.26736 17.0826 5.13542 17.2126C5.00347 17.3426 4.84722 17.4076 4.66667 17.4076C4.34028 17.4076 4.03819 17.3495 3.76042 17.2331C3.48264 17.1168 3.23611 16.9526 3.02083 16.7405C2.80556 16.5283 2.63889 16.2854 2.52083 16.0117C2.40278 15.738 2.34028 15.437 2.33333 15.1085C2.33333 14.9306 2.39931 14.7766 2.53125 14.6466C2.66319 14.5166 2.81944 14.4516 3 14.4516C3.18056 14.4516 3.33681 14.5166 3.46875 14.6466C3.60069 14.7766 3.66667 14.9306 3.66667 15.1085C3.66667 15.3822 3.76389 15.6149 3.95833 15.8065C4.15278 15.998 4.38889 16.0938 4.66667 16.0938C4.84722 16.0938 5.00347 16.1588 5.13542 16.2889C5.26736 16.4189 5.33333 16.5728 5.33333 16.7507Z" fill="black"/>
</svg>
