<svg width="20" height="20" viewBox="0 0 20 20" fill="none" xmlns="http://www.w3.org/2000/svg">
<path d="M6.08108 4.21377H7.56757L13.6175 20H11.9751L10.0208 14.7379H3.56549L1.65281 20H0L6.08108 4.21377ZM4.02287 13.4327H9.52183L7.09979 6.97842C6.96119 6.61528 6.86417 6.24529 6.80873 5.86845H6.75676C6.68053 6.25214 6.57658 6.62213 6.44491 6.97842L4.02287 13.4327ZM16.6736 1.86023L14.2827 4.22405L13.3472 3.2888L16.6736 0L20 3.2888L19.0541 4.22405L16.6736 1.86023ZM16.632 7.89311L19.0229 5.52929L19.9584 6.45426L16.632 9.74306L13.3056 6.45426L14.2412 5.52929L16.632 7.89311Z" fill="black"/>
</svg>
