<svg width="22" height="27" viewBox="0 0 22 27" fill="none" xmlns="http://www.w3.org/2000/svg">
<circle cx="18.5" cy="3.5" r="3.5" fill="#379BBF"/>
<path d="M16 12C16 10.4087 15.3679 8.88258 14.2426 7.75736C13.1174 6.63214 11.5913 6 10 6C8.4087 6 6.88258 6.63214 5.75736 7.75736C4.63214 8.88258 4 10.4087 4 12C4 19 1 21 1 21H19C19 21 16 19 16 12Z" stroke="black" stroke-width="2" stroke-linecap="round" stroke-linejoin="round"/>
<path d="M11.73 25C11.5542 25.3031 11.3018 25.5547 10.9982 25.7295C10.6946 25.9044 10.3504 25.9965 10 25.9965C9.64962 25.9965 9.30539 25.9044 9.00178 25.7295C8.69816 25.5547 8.44581 25.3031 8.27 25" stroke="black" stroke-width="2" stroke-linecap="round" stroke-linejoin="round"/>
</svg>
