<svg width="116" height="14" viewBox="0 0 116 14" fill="none" xmlns="http://www.w3.org/2000/svg">
<path d="M4.0293 11H3.20898V2.03125L0.501953 3.03613V2.27051L3.89258 1.0127H4.0293V11ZM13.0117 7.79395H14.5635V8.48438H13.0117V11H12.1914V8.48438H7.50879V8.01953L12.1162 1.04688H13.0117V7.79395ZM8.51367 7.79395H12.1914V2.10645L11.8291 2.73535L8.51367 7.79395ZM16.3066 5.90039L16.792 1.04688H21.7686V1.80566H17.4961L17.1475 5.16895C17.6807 4.80436 18.305 4.62207 19.0205 4.62207C19.9183 4.62207 20.6338 4.91374 21.167 5.49707C21.7002 6.0804 21.9668 6.85742 21.9668 7.82812C21.9668 8.8763 21.707 9.68978 21.1875 10.2686C20.668 10.8473 19.9365 11.1367 18.9932 11.1367C18.1273 11.1367 17.4255 10.8952 16.8877 10.4121C16.3499 9.92904 16.0423 9.25228 15.9648 8.38184H16.751C16.8285 9.06087 17.0586 9.57585 17.4414 9.92676C17.8242 10.2731 18.3415 10.4463 18.9932 10.4463C19.7041 10.4463 20.2396 10.2207 20.5996 9.76953C20.9642 9.31836 21.1465 8.67578 21.1465 7.8418C21.1465 7.11263 20.9437 6.5179 20.5381 6.05762C20.1325 5.59733 19.5788 5.36719 18.877 5.36719C18.4896 5.36719 18.1523 5.41732 17.8652 5.51758C17.5781 5.61328 17.2751 5.80241 16.9561 6.08496L16.3066 5.90039ZM28.3447 0.97168V1.68945H28.249C27.0596 1.68945 26.123 2.04036 25.4395 2.74219C24.7559 3.43945 24.3776 4.41016 24.3047 5.6543C24.5781 5.27604 24.9268 4.98438 25.3506 4.7793C25.7744 4.56966 26.2484 4.46484 26.7725 4.46484C27.6475 4.46484 28.3424 4.7679 28.8574 5.37402C29.377 5.97559 29.6367 6.764 29.6367 7.73926C29.6367 8.38639 29.516 8.96973 29.2744 9.48926C29.0329 10.0088 28.6865 10.4144 28.2354 10.7061C27.7842 10.9932 27.2692 11.1367 26.6904 11.1367C25.738 11.1367 24.9632 10.7926 24.3662 10.1045C23.7692 9.41178 23.4707 8.51855 23.4707 7.4248V6.60449C23.4707 4.82259 23.8763 3.44401 24.6875 2.46875C25.4987 1.48893 26.6494 0.989909 28.1396 0.97168H28.3447ZM26.6426 5.16895C26.123 5.16895 25.6377 5.32389 25.1865 5.63379C24.7399 5.93913 24.4414 6.32878 24.291 6.80273V7.5C24.291 8.36589 24.512 9.07227 24.9541 9.61914C25.4007 10.166 25.9795 10.4395 26.6904 10.4395C27.3285 10.4395 27.8434 10.1865 28.2354 9.68066C28.6318 9.1748 28.8301 8.53678 28.8301 7.7666C28.8301 6.98275 28.6318 6.35384 28.2354 5.87988C27.8434 5.40592 27.3125 5.16895 26.6426 5.16895ZM40.7656 7.37695C40.7656 8.52995 40.5104 9.44596 40 10.125C39.4896 10.7995 38.806 11.1367 37.9492 11.1367C36.9375 11.1367 36.1628 10.7812 35.625 10.0703V13.8438H34.8115V3.60352H35.5703L35.6113 4.64941C36.1445 3.861 36.917 3.4668 37.9287 3.4668C38.8128 3.4668 39.5055 3.80176 40.0068 4.47168C40.5127 5.1416 40.7656 6.07129 40.7656 7.26074V7.37695ZM39.9453 7.2334C39.9453 6.29004 39.7516 5.54492 39.3643 4.99805C38.9769 4.45117 38.4368 4.17773 37.7441 4.17773C37.2428 4.17773 36.8122 4.2985 36.4521 4.54004C36.0921 4.78158 35.8164 5.13249 35.625 5.59277V9.14062C35.821 9.56445 36.1012 9.88802 36.4658 10.1113C36.8304 10.3346 37.2611 10.4463 37.7578 10.4463C38.446 10.4463 38.9814 10.1729 39.3643 9.62598C39.7516 9.07454 39.9453 8.27702 39.9453 7.2334ZM42.1328 7.19238C42.1328 6.48145 42.2695 5.84115 42.543 5.27148C42.821 4.70182 43.2106 4.25977 43.7119 3.94531C44.2178 3.6263 44.7897 3.4668 45.4277 3.4668C46.4121 3.4668 47.2096 3.81315 47.8203 4.50586C48.431 5.19401 48.7363 6.10775 48.7363 7.24707V7.41797C48.7363 8.13346 48.5973 8.77832 48.3193 9.35254C48.0459 9.9222 47.6585 10.362 47.1572 10.6719C46.6559 10.9818 46.084 11.1367 45.4414 11.1367C44.4616 11.1367 43.6641 10.7926 43.0488 10.1045C42.4382 9.41178 42.1328 8.49577 42.1328 7.35645V7.19238ZM42.9531 7.41797C42.9531 8.30208 43.181 9.02897 43.6367 9.59863C44.097 10.1637 44.6986 10.4463 45.4414 10.4463C46.1797 10.4463 46.7767 10.1637 47.2324 9.59863C47.6927 9.02897 47.9229 8.2793 47.9229 7.34961V7.19238C47.9229 6.62728 47.818 6.11003 47.6084 5.64062C47.3988 5.17122 47.1048 4.80892 46.7266 4.55371C46.3483 4.29395 45.9154 4.16406 45.4277 4.16406C44.6986 4.16406 44.1038 4.45117 43.6436 5.02539C43.1833 5.59505 42.9531 6.34245 42.9531 7.26758V7.41797ZM51.2109 3.60352L51.2383 4.86816C51.5163 4.41243 51.8626 4.06608 52.2773 3.8291C52.6921 3.58757 53.1501 3.4668 53.6514 3.4668C54.4443 3.4668 55.0345 3.6901 55.4219 4.13672C55.8092 4.58333 56.0052 5.25326 56.0098 6.14648V11H55.1963V6.13965C55.1917 5.47884 55.0505 4.98665 54.7725 4.66309C54.499 4.33952 54.0592 4.17773 53.4531 4.17773C52.9473 4.17773 52.4984 4.33724 52.1064 4.65625C51.7191 4.9707 51.432 5.39681 51.2451 5.93457V11H50.4316V3.60352H51.2109ZM59.4004 1.70996V3.60352H60.9316V4.27344H59.4004V9.20215C59.4004 9.6123 59.4733 9.91764 59.6191 10.1182C59.7695 10.3187 60.0179 10.4189 60.3643 10.4189C60.501 10.4189 60.722 10.3962 61.0273 10.3506L61.0615 11.0205C60.8473 11.098 60.5557 11.1367 60.1865 11.1367C59.626 11.1367 59.2181 10.9749 58.9629 10.6514C58.7077 10.3232 58.5801 9.84245 58.5801 9.20898V4.27344H57.2197V3.60352H58.5801V1.70996H59.4004ZM62.0391 7.19238C62.0391 6.48145 62.1758 5.84115 62.4492 5.27148C62.7272 4.70182 63.1169 4.25977 63.6182 3.94531C64.124 3.6263 64.696 3.4668 65.334 3.4668C66.3184 3.4668 67.1159 3.81315 67.7266 4.50586C68.3372 5.19401 68.6426 6.10775 68.6426 7.24707V7.41797C68.6426 8.13346 68.5036 8.77832 68.2256 9.35254C67.9521 9.9222 67.5648 10.362 67.0635 10.6719C66.5622 10.9818 65.9902 11.1367 65.3477 11.1367C64.3678 11.1367 63.5703 10.7926 62.9551 10.1045C62.3444 9.41178 62.0391 8.49577 62.0391 7.35645V7.19238ZM62.8594 7.41797C62.8594 8.30208 63.0872 9.02897 63.543 9.59863C64.0033 10.1637 64.6048 10.4463 65.3477 10.4463C66.0859 10.4463 66.6829 10.1637 67.1387 9.59863C67.599 9.02897 67.8291 8.2793 67.8291 7.34961V7.19238C67.8291 6.62728 67.7243 6.11003 67.5146 5.64062C67.305 5.17122 67.0111 4.80892 66.6328 4.55371C66.2546 4.29395 65.8216 4.16406 65.334 4.16406C64.6048 4.16406 64.0101 4.45117 63.5498 5.02539C63.0895 5.59505 62.8594 6.34245 62.8594 7.26758V7.41797ZM74.7676 9.12012C74.7676 8.71452 74.6035 8.38867 74.2754 8.14258C73.9518 7.89648 73.4619 7.70508 72.8057 7.56836C72.1494 7.42708 71.639 7.26758 71.2744 7.08984C70.9144 6.90755 70.6455 6.68652 70.4678 6.42676C70.2946 6.16699 70.208 5.85254 70.208 5.4834C70.208 4.90007 70.4518 4.41927 70.9395 4.04102C71.4271 3.6582 72.0514 3.4668 72.8125 3.4668C73.6374 3.4668 74.2982 3.67188 74.7949 4.08203C75.2962 4.48763 75.5469 5.01855 75.5469 5.6748H74.7266C74.7266 5.24186 74.5443 4.88184 74.1797 4.59473C73.8197 4.30762 73.3639 4.16406 72.8125 4.16406C72.2747 4.16406 71.8418 4.28483 71.5137 4.52637C71.1901 4.76335 71.0283 5.07324 71.0283 5.45605C71.0283 5.8252 71.1628 6.1123 71.4316 6.31738C71.7051 6.5179 72.1995 6.70247 72.915 6.87109C73.6351 7.03971 74.1729 7.21973 74.5283 7.41113C74.8883 7.60254 75.1549 7.83268 75.3281 8.10156C75.5013 8.37044 75.5879 8.69629 75.5879 9.0791C75.5879 9.70345 75.335 10.2025 74.8291 10.5762C74.3278 10.9499 73.6715 11.1367 72.8604 11.1367C71.999 11.1367 71.2995 10.9294 70.7617 10.5146C70.2285 10.0954 69.9619 9.56673 69.9619 8.92871H70.7822C70.8141 9.40723 71.0146 9.78092 71.3838 10.0498C71.7575 10.3141 72.2497 10.4463 72.8604 10.4463C73.43 10.4463 73.8903 10.321 74.2412 10.0703C74.5921 9.81966 74.7676 9.50293 74.7676 9.12012Z" fill="black"/>
<path d="M95.4805 9.76953C95.1113 10.1797 94.5713 10.5101 93.8604 10.7607C93.1494 11.0114 92.3701 11.1367 91.5225 11.1367C90.2191 11.1367 89.1777 10.738 88.3984 9.94043C87.6191 9.1429 87.2021 8.0332 87.1475 6.61133L87.1406 5.75C87.1406 4.77018 87.3138 3.91569 87.6602 3.18652C88.0065 2.4528 88.501 1.88997 89.1436 1.49805C89.7907 1.10156 90.5381 0.90332 91.3857 0.90332C92.6253 0.90332 93.5869 1.18815 94.2705 1.75781C94.9587 2.32292 95.3597 3.16829 95.4736 4.29395H93.1631C93.0811 3.73796 92.9033 3.34147 92.6299 3.10449C92.3564 2.86751 91.9691 2.74902 91.4678 2.74902C90.8662 2.74902 90.4014 3.00423 90.0732 3.51465C89.7451 4.02507 89.5788 4.75423 89.5742 5.70215V6.30371C89.5742 7.2972 89.7428 8.0446 90.0801 8.5459C90.4219 9.04264 90.9574 9.29102 91.6865 9.29102C92.3109 9.29102 92.7757 9.15202 93.0811 8.87402V7.3291H91.4131V5.68164H95.4805V9.76953ZM96.4785 7.2334C96.4785 6.49512 96.6221 5.83887 96.9092 5.26465C97.1963 4.68587 97.6087 4.24154 98.1465 3.93164C98.6842 3.62174 99.3154 3.4668 100.04 3.4668C101.147 3.4668 102.02 3.81087 102.658 4.49902C103.296 5.18262 103.615 6.11458 103.615 7.29492V7.37695C103.615 8.52995 103.294 9.44596 102.651 10.125C102.013 10.7995 101.147 11.1367 100.054 11.1367C99.001 11.1367 98.1556 10.8223 97.5176 10.1934C96.8796 9.5599 96.5355 8.70312 96.4854 7.62305L96.4785 7.2334ZM98.7822 7.37695C98.7822 8.06055 98.8893 8.56185 99.1035 8.88086C99.3177 9.19987 99.6344 9.35938 100.054 9.35938C100.874 9.35938 101.293 8.72819 101.312 7.46582V7.2334C101.312 5.90723 100.888 5.24414 100.04 5.24414C99.2699 5.24414 98.8529 5.81608 98.7891 6.95996L98.7822 7.37695ZM107.061 11H104.75V0.5H107.061V11ZM108.195 7.24707C108.195 6.07585 108.448 5.15299 108.954 4.47852C109.46 3.80404 110.166 3.4668 111.073 3.4668C111.734 3.4668 112.29 3.72656 112.741 4.24609V0.5H115.052V11H112.98L112.864 10.207C112.39 10.8268 111.789 11.1367 111.06 11.1367C110.18 11.1367 109.483 10.7995 108.968 10.125C108.453 9.45052 108.195 8.49121 108.195 7.24707ZM110.499 7.39062C110.499 8.70312 110.882 9.35938 111.647 9.35938C112.158 9.35938 112.522 9.14518 112.741 8.7168V5.90039C112.532 5.46289 112.172 5.24414 111.661 5.24414C110.95 5.24414 110.565 5.81836 110.506 6.9668L110.499 7.39062Z" fill="white"/>
</svg>
